<!--?xml version="1.0" encoding="utf-8"?-->
<!-- Generator: Adobe Illustrator 23.0.0, SVG Export Plug-In . SVG Version: 6.00 Build 0)  -->
<svg version="1.1" id="圖層_1" xmlns="http://www.w3.org/2000/svg" xmlns:xlink="http://www.w3.org/1999/xlink" x="0px" y="0px" viewBox="0 0 34.5 34" style="" xml:space="preserve">
<style type="text/css">
	.st0{fill:#AA9988;}
	.st1{fill:#DCCABD;}
	.st2{fill:none;stroke:#AA9988;stroke-miterlimit:10;}
</style>
<path class="st0 mCmgTfwr_0" d="M70.4,236.7L120.2,236.6L105.5,225.5L105,233.8L67.8,233.7Z"></path>
<g>
	<path class="st1 mCmgTfwr_1" d="M-42.9,85V23.7h-10.8v-2.5h33.5v2.5h-10.9V85h10.9v2.5h-33.5V85H-42.9z"></path>
</g>
<g>
	<path class="st1 mCmgTfwr_2" d="M59.8,30.1V-6.5h-7.5v-2.7h4.7c5.6,0,10-0.2,13.3-0.7V0.4h0.2C73.2-6.5,78.3-10,85.5-10
		c7.9,0,12.2,3.7,13.1,11h0.2c3.1-7.3,8.3-11,15.5-11c3.2,0,5.9,0.8,8.1,2.4c2.2,1.6,3.6,3.5,4.1,5.6s0.8,5.6,0.8,10.4v21.6h7.4v2.7
		h-24.9v-2.7h7V3.7c0-4.2-0.2-7.1-0.7-8.6s-1.8-2.4-3.9-2.4c-2.9,0-5.9,1.6-8.9,4.9c-3.1,3.3-4.6,9.5-4.6,18.6v13.9h6.9v2.7H81.3
		v-2.7h7V9.4C88.3,1.3,88-3.5,87.4-5s-2-2.3-4.2-2.3c-3,0-5.7,1.3-7.9,4C73-0.6,71.6,2,71,4.5s-0.8,6.6-0.8,12.1v13.5h6.9v2.7H52.2
		v-2.7L59.8,30.1L59.8,30.1z"></path>
</g>
<g>
	<g>
		<path class="st1 mCmgTfwr_3" d="M-147,183.2v26.6h5.6c2,0,3.6-0.2,5-0.6c1.4-0.4,2.6-1.4,3.7-3.1c1.1-1.7,1.7-4.4,1.9-8h2.4v26.3h-2.4
			c-0.3-5-1.2-8.3-2.9-9.9c-1.7-1.6-4.3-2.4-7.7-2.4h-5.6v28.4h12.6c7.2,0,12.1-1.5,14.9-4.5c2.8-3,4.4-7.6,4.9-13.9h2.4l-0.6,20.8
			h-55.1v-2.4h9.9v-57.4h-9.9v-2.4h52.8l1.1,16.6h-2.4c-0.8-5-2.5-8.7-5-10.9s-6.7-3.3-12.5-3.3L-147,183.2L-147,183.2z"></path>
		<path class="st1 mCmgTfwr_4" d="M-97.3,240.6v-31.7h-6.6v-2.4h4.2c4.2,0,8-0.2,11.3-0.7v9h0.2c3.2-6.3,7.7-9.5,13.5-9.5
			c2.7,0,4.9,0.7,6.7,2.1s2.9,3,3.6,4.9s0.9,4.8,0.9,8.8v19.5h7.2v2.4h-22.4v-2.4h6.2v-23.2c0-3.6-0.2-6-0.7-7.4s-1.6-2-3.5-2
			c-3,0-5.7,1.5-8.1,4.6c-2.4,3.1-3.6,7.2-3.6,12.4v15.6h6.1v2.4h-21.6v-2.4L-97.3,240.6L-97.3,240.6z"></path>
		<path class="st1 mCmgTfwr_5" d="M-39.9,208.9l13,25.4l11.3-25.4h-8.1v-2.4h16.4v2.4h-6.2l-18.7,42.3c-2.7,6.1-5,10.3-6.8,12.7
			s-4.2,3.6-6.8,3.6c-1.7,0-3-0.5-3.9-1.6s-1.4-2.3-1.4-3.6c0-1.2,0.4-2.2,1.2-3s1.7-1.2,2.8-1.2c1.5,0,2.7,0.7,3.5,2.1
			s1.5,2.1,2.1,2.1c0.8,0,1.7-0.8,2.7-2.3c1-1.5,2.4-4.5,4.4-8.9l3-6.8l-18.3-35.5h-5.5v-2.4h22.3v2.4L-39.9,208.9L-39.9,208.9z"></path>
		<path class="st1 mCmgTfwr_6" d="M20.5,222.2v-4.7c0-3.9-0.3-6.4-1-7.6c-0.6-1.2-2.3-1.8-5.1-1.8c-5,0-7.5,1-7.5,2.9c0,0.6,0.2,1.2,0.6,1.8
			c0.4,0.7,0.6,1.4,0.6,2.3c0,1.3-0.4,2.2-1.3,2.9s-1.8,1-2.8,1c-1.4,0-2.4-0.4-3.2-1.3c-0.7-0.9-1.1-1.9-1.1-3
			c0-2.5,1.4-4.6,4.3-6.2s6.9-2.5,12.1-2.5c4.1,0,7.2,0.5,9.1,1.4c1.9,1,3.1,2.1,3.5,3.6c0.5,1.4,0.7,3.4,0.7,6V234
			c0,2.5,0.2,4.1,0.5,4.7c0.4,0.6,0.9,0.9,1.6,0.9c1.1,0,2.2-0.8,3.2-2.3h1.1c-0.8,4.5-3.4,6.8-7.9,6.8c-4.3,0-6.9-2.5-7.7-7.4
			c-3.6,4.9-7.9,7.4-12.7,7.4c-3.2,0-5.8-0.9-7.7-2.6c-1.9-1.8-2.9-3.9-2.9-6.4C-2.7,227.2,5,222.9,20.5,222.2z M20.5,229.3v-5
			c-5.7,0.2-9.5,1.1-11.3,2.6s-2.7,3.7-2.7,6.5c0,2.1,0.6,3.7,1.6,4.8c1.1,1.1,2.4,1.7,3.8,1.7c1.8,0,3.5-0.6,4.9-1.8
			s2.5-2.4,2.9-3.7S20.5,231.5,20.5,229.3z"></path>
	</g>
	<g>
		<path class="st1 mCmgTfwr_7" d="M190.8,179.8l0.3,16.1h-2.2c-3.1-9.7-8.5-14.5-16.4-14.5c-4.3,0-7.7,1.2-10.1,3.6s-3.6,4.9-3.6,7.4
			c0,2.4,1,4.4,3,6.1c2,1.7,5.6,3,10.9,3.9c5.3,0.9,9.3,2,12.1,3.3c2.8,1.3,5.1,3.5,7,6.6s2.9,6.6,2.9,10.5c0,6.1-2,11.1-6,15.2
			s-8.9,6.1-14.8,6.1c-4.8,0-9.6-1.8-14.3-5.3l-4.4,3.9h-1.6v-17.4h2c1.8,5.5,4.4,9.6,7.6,12.3s6.9,4.1,10.8,4.1
			c3.9,0,7.4-1.3,10.6-3.8s4.8-5.8,4.8-9.7c0-3.3-1.1-6-3.4-8.3s-5.9-3.8-10.9-4.6s-8.9-1.8-11.6-3c-2.7-1.1-5-3.1-6.9-5.9
			c-1.9-2.8-2.9-5.9-2.9-9.3c0-4.7,1.7-8.9,5-12.6s7.9-5.5,13.6-5.5c4.8,0,9.3,1.5,13.4,4.5c1.1-1.1,2.1-2.4,3-3.8L190.8,179.8
			L190.8,179.8z"></path>
		<path class="st1 mCmgTfwr_8" d="M209.6,240.3v-57.4h-7.2v-2.4h6.9c4.2,0,7.3-0.2,9.3-0.7v34.6h0.2c3.1-5.8,7.4-8.8,13-8.8
			c2.3,0,4.4,0.6,6.6,1.7s3.5,2.8,4.1,5c0.6,2.2,0.9,5.6,0.9,10.4v17.6h6v2.4h-20.9v-2.4h6v-18.4c0-5-0.1-8.6-0.4-10.7
			c-0.3-2.1-1.7-3.2-4.2-3.2c-2.7,0-4.9,1.1-6.8,3.4s-3,4.6-3.6,7c-0.5,2.4-0.8,6.3-0.8,11.8v10.1h6v2.4h-21.5v-2.4L209.6,240.3
			L209.6,240.3z"></path>
		<path class="st1 mCmgTfwr_9" d="M269.9,205.6v34.8h6.1v2.4h-21.6v-2.4h6.5v-31.7h-6.5v-2.4h6.6C264.2,206.3,267.2,206,269.9,205.6z
			 M260.6,187.7c0-1.4,0.5-2.5,1.5-3.5c1-1,2.2-1.5,3.5-1.5s2.5,0.5,3.5,1.5s1.5,2.2,1.5,3.5c0,1.4-0.5,2.7-1.5,3.6
			c-1,1-2.2,1.4-3.6,1.4s-2.6-0.5-3.6-1.5C261.1,190.3,260.6,189.1,260.6,187.7z"></path>
		<path class="st1 mCmgTfwr_10" d="M287.7,240.3v-57.4h-7.2v-2.4h7c4.2,0,7.3-0.2,9.3-0.7v34.6h0.2c3.1-5.8,7.4-8.8,13-8.8
			c2.3,0,4.5,0.6,6.6,1.7c2.1,1.2,3.5,2.8,4.1,5c0.6,2.2,0.9,5.6,0.9,10.4v17.6h6v2.4h-21v-2.4h6v-18.4c0-5-0.1-8.6-0.4-10.7
			c-0.3-2.1-1.7-3.2-4.2-3.2c-2.7,0-5,1.1-6.8,3.4s-3,4.6-3.6,7s-0.8,6.3-0.8,11.8v10.1h6v2.4h-21.5v-2.4L287.7,240.3L287.7,240.3z"></path>
	</g>
</g>
<path class="st2 mCmgTfwr_11" d="M4.8,33.2L32.9,1.1L17.4,4.3L22.5,9.4L1.5,33.2Z"></path>
<path class="st0 mCmgTfwr_12" d="M-31.2,174.7l23.5-13.7l-1.2,9.4c34.8-5.8,67.7-23.9,83.7-40.6c6.1-6.3,9.4-12.3,9.7-17
	c-18,6.8-39.5,8.4-51.1,2.6c-5.8-2.9-8.7-7.5-8.2-13.2c0.7-8.4,10.3-14,24.4-14c0,0,0,0,0,0c8.7,0,17.5,2.2,24.3,5.8
	c7.2,3.9,11.6,9.2,12.8,15.3c5.2-2.2,10-4.8,14-7.7c7.8-5.8,16.2-15.4,12.4-28.8l2.4-0.6c3.3,11.6-1.3,22.4-13.3,31.3
	c-4.4,3.3-9.6,6.1-15.3,8.4c0.2,5.5-3.3,12.2-10.3,19.5C57.6,151.2,15,173.1-26.6,174.5L-31.2,174.7z M-10.8,165.5l-11,6.4
	c3.5-0.3,6.9-0.6,10.4-1.1L-10.8,165.5z M49.5,91.2c-9.7,0-21.2,2.8-21.9,11.5c-0.4,4.8,1.9,8.3,6.9,10.8
	c11.1,5.5,32.3,3.8,49.8-2.9C82.3,98.4,65.4,91.2,49.5,91.2C49.6,91.2,49.6,91.2,49.5,91.2z"></path>
<style data-made-with="vivus-instant">.mCmgTfwr_0{stroke-dasharray:118 120;stroke-dashoffset:119;animation:mCmgTfwr_draw_0 3000ms ease-out 0ms infinite,mCmgTfwr_fade 3000ms linear 0ms infinite;}.mCmgTfwr_1{stroke-dasharray:243 245;stroke-dashoffset:244;animation:mCmgTfwr_draw_1 3000ms ease-out 0ms infinite,mCmgTfwr_fade 3000ms linear 0ms infinite;}.mCmgTfwr_2{stroke-dasharray:484 486;stroke-dashoffset:485;animation:mCmgTfwr_draw_2 3000ms ease-out 0ms infinite,mCmgTfwr_fade 3000ms linear 0ms infinite;}.mCmgTfwr_3{stroke-dasharray:449 451;stroke-dashoffset:450;animation:mCmgTfwr_draw_3 3000ms ease-out 0ms infinite,mCmgTfwr_fade 3000ms linear 0ms infinite;}.mCmgTfwr_4{stroke-dasharray:278 280;stroke-dashoffset:279;animation:mCmgTfwr_draw_4 3000ms ease-out 0ms infinite,mCmgTfwr_fade 3000ms linear 0ms infinite;}.mCmgTfwr_5{stroke-dasharray:284 286;stroke-dashoffset:285;animation:mCmgTfwr_draw_5 3000ms ease-out 0ms infinite,mCmgTfwr_fade 3000ms linear 0ms infinite;}.mCmgTfwr_6{stroke-dasharray:247 249;stroke-dashoffset:248;animation:mCmgTfwr_draw_6 3000ms ease-out 0ms infinite,mCmgTfwr_fade 3000ms linear 0ms infinite;}.mCmgTfwr_7{stroke-dasharray:342 344;stroke-dashoffset:343;animation:mCmgTfwr_draw_7 3000ms ease-out 0ms infinite,mCmgTfwr_fade 3000ms linear 0ms infinite;}.mCmgTfwr_8{stroke-dasharray:326 328;stroke-dashoffset:327;animation:mCmgTfwr_draw_8 3000ms ease-out 0ms infinite,mCmgTfwr_fade 3000ms linear 0ms infinite;}.mCmgTfwr_9{stroke-dasharray:162 164;stroke-dashoffset:163;animation:mCmgTfwr_draw_9 3000ms ease-out 0ms infinite,mCmgTfwr_fade 3000ms linear 0ms infinite;}.mCmgTfwr_10{stroke-dasharray:326 328;stroke-dashoffset:327;animation:mCmgTfwr_draw_10 3000ms ease-out 0ms infinite,mCmgTfwr_fade 3000ms linear 0ms infinite;}.mCmgTfwr_11{stroke-dasharray:101 103;stroke-dashoffset:102;animation:mCmgTfwr_draw_11 3000ms ease-out 0ms infinite,mCmgTfwr_fade 3000ms linear 0ms infinite;}.mCmgTfwr_12{stroke-dasharray:708 710;stroke-dashoffset:709;animation:mCmgTfwr_draw_12 3000ms ease-out 0ms infinite,mCmgTfwr_fade 3000ms linear 0ms infinite;}@keyframes mCmgTfwr_draw{100%{stroke-dashoffset:0;}}@keyframes mCmgTfwr_fade{0%{stroke-opacity:1;}90%{stroke-opacity:1;}100%{stroke-opacity:0;}}@keyframes mCmgTfwr_draw_0{16.666666666666664%{stroke-dashoffset: 119}38.88888888888889%{ stroke-dashoffset: 0;}100%{ stroke-dashoffset: 0;}}@keyframes mCmgTfwr_draw_1{17.59259259259259%{stroke-dashoffset: 244}39.81481481481482%{ stroke-dashoffset: 0;}100%{ stroke-dashoffset: 0;}}@keyframes mCmgTfwr_draw_2{18.51851851851852%{stroke-dashoffset: 485}40.74074074074074%{ stroke-dashoffset: 0;}100%{ stroke-dashoffset: 0;}}@keyframes mCmgTfwr_draw_3{19.444444444444446%{stroke-dashoffset: 450}41.66666666666667%{ stroke-dashoffset: 0;}100%{ stroke-dashoffset: 0;}}@keyframes mCmgTfwr_draw_4{20.37037037037037%{stroke-dashoffset: 279}42.592592592592595%{ stroke-dashoffset: 0;}100%{ stroke-dashoffset: 0;}}@keyframes mCmgTfwr_draw_5{21.296296296296298%{stroke-dashoffset: 285}43.518518518518526%{ stroke-dashoffset: 0;}100%{ stroke-dashoffset: 0;}}@keyframes mCmgTfwr_draw_6{22.22222222222222%{stroke-dashoffset: 248}44.44444444444445%{ stroke-dashoffset: 0;}100%{ stroke-dashoffset: 0;}}@keyframes mCmgTfwr_draw_7{23.14814814814815%{stroke-dashoffset: 343}45.37037037037038%{ stroke-dashoffset: 0;}100%{ stroke-dashoffset: 0;}}@keyframes mCmgTfwr_draw_8{24.074074074074073%{stroke-dashoffset: 327}46.2962962962963%{ stroke-dashoffset: 0;}100%{ stroke-dashoffset: 0;}}@keyframes mCmgTfwr_draw_9{25%{stroke-dashoffset: 163}47.22222222222223%{ stroke-dashoffset: 0;}100%{ stroke-dashoffset: 0;}}@keyframes mCmgTfwr_draw_10{25.92592592592593%{stroke-dashoffset: 327}48.14814814814815%{ stroke-dashoffset: 0;}100%{ stroke-dashoffset: 0;}}@keyframes mCmgTfwr_draw_11{26.851851851851848%{stroke-dashoffset: 102}49.07407407407407%{ stroke-dashoffset: 0;}100%{ stroke-dashoffset: 0;}}@keyframes mCmgTfwr_draw_12{27.777777777777775%{stroke-dashoffset: 709}50%{ stroke-dashoffset: 0;}100%{ stroke-dashoffset: 0;}}</style></svg>
