<?xml version="1.0" encoding="utf-8"?>
<!-- Generator: Adobe Illustrator 23.0.0, SVG Export Plug-In . SVG Version: 6.00 Build 0)  -->
<svg version="1.1" id="圖層_1" xmlns="http://www.w3.org/2000/svg" xmlns:xlink="http://www.w3.org/1999/xlink" x="0px" y="0px"
	 viewBox="0 0 153 104" style="enable-background:new 0 0 153 104;" xml:space="preserve">
<style type="text/css">
	.st0{fill:none;stroke:#AA9988;stroke-miterlimit:10;}
</style>
<path class="st0" d="M2.6,103.3l23.5-13.7L24.9,99c34.8-5.8,67.7-23.9,83.7-40.6c6.1-6.3,9.4-12.3,9.7-17c-18,6.8-39.4,8.4-51.1,2.6
	c-5.8-2.9-8.7-7.5-8.2-13.2c0.7-8.5,10.3-14,24.4-14c0,0,0,0,0,0c8.7,0,17.5,2.2,24.3,5.8c7.2,3.9,11.6,9.1,12.8,15.3
	c5.2-2.2,10-4.8,14-7.7c7.8-5.8,16.2-15.4,12.4-28.9l2.4-0.6c3.3,11.6-1.3,22.4-13.3,31.3c-4.4,3.3-9.6,6.1-15.3,8.4
	c0.2,5.5-3.3,12.2-10.3,19.5C91.4,79.8,48.8,101.7,7.3,103.1L2.6,103.3z M23,94.1l-11,6.4c3.5-0.3,6.9-0.6,10.4-1.1L23,94.1z
	 M83.4,19.8c-9.7,0-21.2,2.8-21.9,11.5c-0.4,4.8,1.9,8.3,6.9,10.8c11.1,5.5,32.3,3.8,49.8-2.9C116.1,26.9,99.2,19.8,83.4,19.8
	C83.4,19.8,83.4,19.8,83.4,19.8z"/>
</svg>
