<?xml version="1.0" encoding="utf-8"?>
<!-- Generator: Adobe Illustrator 23.0.0, SVG Export Plug-In . SVG Version: 6.00 Build 0)  -->
<svg version="1.1" id="圖層_1" xmlns="http://www.w3.org/2000/svg" xmlns:xlink="http://www.w3.org/1999/xlink" x="0px" y="0px"
	 viewBox="0 0 500.8 93" style="enable-background:new 0 0 500.8 93;" xml:space="preserve">
<style type="text/css">
	.st0{fill:#DCCABD;}
</style>
<g>
	<g>
		<path class="st0" d="M23.6,6.4V33h5.6c2,0,3.7-0.2,5-0.6c1.4-0.4,2.6-1.4,3.7-3.1s1.7-4.4,1.9-8h2.4v26.3h-2.4
			c-0.3-5-1.2-8.3-2.9-9.9c-1.7-1.6-4.3-2.4-7.7-2.4h-5.6v28.4h12.6c7.2,0,12.1-1.5,14.9-4.5c2.8-3,4.4-7.7,4.9-13.9h2.4l-0.6,20.8
			H2.8v-2.4h9.9V6.4H2.8V4h52.8l1.1,16.6h-2.4c-0.8-5-2.5-8.7-5-10.9s-6.7-3.3-12.5-3.3H23.6z"/>
		<path class="st0" d="M73.3,63.8V32.1h-6.6v-2.4h4.2c4.2,0,8-0.2,11.3-0.7v9h0.2c3.2-6.3,7.7-9.5,13.5-9.5c2.7,0,4.9,0.7,6.7,2.1
			s2.9,3,3.6,4.9s0.9,4.8,0.9,8.8v19.5h7.2v2.4H92v-2.4h6.2V40.6c0-3.5-0.2-6-0.7-7.4s-1.6-2-3.5-2c-3,0-5.7,1.5-8.1,4.6
			c-2.4,3.1-3.6,7.2-3.6,12.4v15.6h6.1v2.4H66.7v-2.4H73.3z"/>
		<path class="st0" d="M130.7,32.1l13,25.3L155,32.1h-8.1v-2.4h16.4v2.4h-6.2l-18.7,42.3c-2.7,6.1-5,10.3-6.8,12.7
			c-1.9,2.4-4.2,3.6-6.8,3.6c-1.7,0-3-0.5-3.9-1.6s-1.4-2.3-1.4-3.6c0-1.2,0.4-2.2,1.2-3s1.7-1.2,2.8-1.2c1.5,0,2.7,0.7,3.5,2.1
			s1.5,2.1,2.1,2.1c0.8,0,1.7-0.8,2.7-2.3c1-1.5,2.4-4.5,4.4-8.8l3-6.8l-18.3-35.5h-5.5v-2.4h22.3v2.4L130.7,32.1L130.7,32.1z"/>
		<path class="st0" d="M191.1,45.4v-4.7c0-3.9-0.3-6.4-0.9-7.6c-0.6-1.2-2.3-1.8-5.1-1.8c-5,0-7.5,1-7.5,2.9c0,0.6,0.2,1.2,0.6,1.8
			c0.4,0.7,0.6,1.5,0.6,2.3c0,1.3-0.4,2.2-1.3,2.9c-0.8,0.7-1.8,1-2.8,1c-1.4,0-2.4-0.4-3.1-1.3c-0.7-0.8-1.1-1.8-1.1-3
			c0-2.5,1.4-4.5,4.3-6.2s6.9-2.5,12.1-2.5c4.1,0,7.2,0.5,9.1,1.4c1.9,1,3.1,2.2,3.6,3.6s0.7,3.4,0.7,6v17.1c0,2.5,0.2,4.1,0.5,4.7
			c0.4,0.6,0.9,0.9,1.6,0.9c1.1,0,2.2-0.8,3.2-2.3h1.1c-0.8,4.5-3.4,6.8-7.9,6.8c-4.3,0-6.9-2.5-7.7-7.4c-3.6,4.9-7.9,7.4-12.7,7.4
			c-3.2,0-5.8-0.9-7.7-2.6c-1.9-1.8-2.9-3.9-2.9-6.4C167.9,50.4,175.6,46.1,191.1,45.4z M191.1,52.5v-5c-5.7,0.2-9.5,1.1-11.3,2.6
			c-1.8,1.5-2.7,3.7-2.7,6.5c0,2.1,0.6,3.7,1.6,4.8c1.1,1.1,2.4,1.7,3.8,1.7c1.8,0,3.5-0.6,4.9-1.8s2.4-2.5,2.9-3.7
			S191.1,54.7,191.1,52.5z"/>
	</g>
	<g>
		<path class="st0" d="M361.4,3l0.3,16.1h-2.2c-3.1-9.7-8.5-14.5-16.4-14.5c-4.3,0-7.7,1.2-10.1,3.6s-3.6,4.9-3.6,7.4
			c0,2.4,1,4.4,3,6.1s5.6,3,10.9,3.9s9.3,2,12.1,3.3c2.8,1.3,5.1,3.5,7,6.6s2.9,6.6,2.9,10.5c0,6.1-2,11.1-6,15.2s-8.9,6.1-14.8,6.1
			c-4.8,0-9.6-1.8-14.3-5.3l-4.4,3.9h-1.6V48.5h2c1.8,5.5,4.4,9.6,7.6,12.3s6.9,4.1,10.8,4.1c3.9,0,7.4-1.3,10.6-3.8
			s4.8-5.8,4.8-9.7c0-3.3-1.1-6-3.4-8.3s-5.9-3.8-10.9-4.6c-5-0.8-8.9-1.8-11.6-3c-2.7-1.1-5-3.1-6.9-5.9c-1.9-2.8-2.9-5.9-2.9-9.3
			c0-4.7,1.7-8.9,5-12.6s7.9-5.5,13.6-5.5c4.8,0,9.3,1.5,13.4,4.5c1.1-1.1,2.1-2.3,3-3.8L361.4,3L361.4,3z"/>
		<path class="st0" d="M380.2,63.5V6.1H373V3.7h7c4.2,0,7.3-0.2,9.3-0.7v34.6h0.2c3.1-5.8,7.4-8.8,13-8.8c2.3,0,4.5,0.6,6.6,1.7
			c2.1,1.2,3.5,2.8,4.1,5s0.9,5.6,0.9,10.4v17.6h6v2.4h-21v-2.4h6V45c0-5-0.1-8.6-0.4-10.7c-0.3-2.1-1.7-3.2-4.2-3.2
			c-2.7,0-5,1.1-6.8,3.4s-3,4.7-3.6,7s-0.8,6.3-0.8,11.8v10.1h6v2.4h-21.5v-2.4L380.2,63.5L380.2,63.5z"/>
		<path class="st0" d="M440.5,28.7v34.8h6.1v2.4h-21.5v-2.4h6.5V31.8h-6.5v-2.4h6.6C434.8,29.4,437.8,29.2,440.5,28.7z M431.2,10.9
			c0-1.4,0.5-2.5,1.5-3.5c1-1,2.2-1.5,3.5-1.5s2.5,0.5,3.5,1.5s1.5,2.2,1.5,3.5c0,1.4-0.5,2.7-1.5,3.6c-1,1-2.2,1.4-3.6,1.4
			s-2.6-0.5-3.6-1.5C431.7,13.5,431.2,12.3,431.2,10.9z"/>
		<path class="st0" d="M458.3,63.5V6.1H451V3.7h7c4.2,0,7.3-0.2,9.3-0.7v34.6h0.2c3.1-5.8,7.4-8.8,13-8.8c2.3,0,4.5,0.6,6.6,1.7
			c2.1,1.2,3.5,2.8,4.1,5s0.9,5.6,0.9,10.4v17.6h6v2.4h-20.9v-2.4h6V45c0-5-0.1-8.6-0.4-10.7c-0.3-2.1-1.7-3.2-4.2-3.2
			c-2.7,0-5,1.1-6.8,3.4s-3,4.7-3.6,7s-0.8,6.3-0.8,11.8v10.1h6v2.4h-21.5v-2.4L458.3,63.5L458.3,63.5z"/>
	</g>
</g>
</svg>
