<?xml version="1.0" encoding="utf-8"?>
<!-- Generator: Adobe Illustrator 23.0.1, SVG Export Plug-In . SVG Version: 6.00 Build 0)  -->
<svg version="1.1" id="圖層_1" xmlns="http://www.w3.org/2000/svg" xmlns:xlink="http://www.w3.org/1999/xlink" x="0px" y="0px"
	 viewBox="0 0 100 100" style="enable-background:new 0 0 100 100;" xml:space="preserve">
<style type="text/css">
	.st0{fill:#DCCABD;}
</style>
<g>
	<g>
		<g>
			<path class="st0" d="M22.74,34.23v10.04h10.71v2.93H19.81V18.89h13.64v2.93H22.74v9.49h7.5v2.93H22.74z"/>
		</g>
	</g>
	<g>
		<path class="st0" d="M70.21,80.99c1.26-0.02,2.31-0.46,3.17-1.33c0.91-0.88,1.36-1.93,1.36-3.14c-0.02-1.79-1.83-3.91-5.41-6.35
			c-3.98-2.72-5.96-5.38-5.96-7.99c0-1.79,0.5-3.36,1.5-4.71c1.26-1.7,3-2.55,5.23-2.55c3.02,0,5.56,1.88,7.6,5.65l-1.85,2.27
			c-0.88-1.67-1.65-2.86-2.3-3.56c-0.84-0.95-1.99-1.43-3.45-1.43c-1.05,0.02-1.95,0.47-2.72,1.33c-0.72,0.86-1.08,1.86-1.08,3
			c0,1.72,1.96,3.88,5.89,6.49c3.65,2.42,5.48,5.03,5.48,7.85c0,2.02-0.73,3.78-2.2,5.27c-1.4,1.42-3.15,2.13-5.27,2.13
			c-3.09-0.02-5.66-2-7.71-5.93l1.92-2.2C66.25,79.24,68.18,80.97,70.21,80.99z"/>
	</g>
	<g>
		<polygon class="st0" points="6.56,87.79 6.56,6.56 87.79,6.56 90.42,3.93 3.93,3.93 3.93,90.42 		"/>
		<polygon class="st0" points="93.44,12.21 93.44,93.44 12.21,93.44 9.58,96.07 96.07,96.07 96.07,9.58 		"/>
	</g>
	
		<rect x="-19.81" y="49.15" transform="matrix(0.7068 -0.7074 0.7074 0.7068 -20.7107 50.0287)" class="st0" width="139.62" height="1.7"/>
</g>
</svg>
