<!--?xml version="1.0" encoding="utf-8"?-->
<!-- Generator: Adobe Illustrator 23.0.1, SVG Export Plug-In . SVG Version: 6.00 Build 0)  -->
<svg version="1.1" xmlns="http://www.w3.org/2000/svg" xmlns:xlink="http://www.w3.org/1999/xlink" x="0px" y="0px" viewBox="0 0 100 100" style="" xml:space="preserve">
<style type="text/css">
	.st0{display:none;}
	.st1{display:inline;}
	.st2{fill:none;stroke:#346970;stroke-linecap:round;stroke-linejoin:round;stroke-miterlimit:10;}
	.st3{fill:none;stroke:#346970;stroke-linecap:round;stroke-miterlimit:10;}
</style>
<g id="圖層_1" class="st0">
	<g class="st1">
		<path d="M-218.7,28.2l-38.63-15.05c-0.43-0.17-0.9-0.17-1.32,0L-297.3,28.2c-0.7,0.27-1.16,0.95-1.16,1.7
			c0,0.75,0.46,1.43,1.16,1.7l38.63,15.05c0.43,0.17,0.9,0.17,1.32,0l38.63-15.05c0.7-0.27,1.16-0.95,1.16-1.7
			C-217.54,29.15-218,28.48-218.7,28.2z M-258,42.99l-33.61-13.09L-258,16.81l33.61,13.09L-258,42.99z" class="lbGWFAOS_0"></path>
		<path d="M-218.69,48.31l-16.26-6.51c-0.6-0.25-1.3-0.16-1.82,0.24c-0.52,0.4-0.78,1.05-0.69,1.7c0.09,0.65,0.52,1.2,1.13,1.44
			l0.02,0.01l11.97,4.8L-258,63.09l-33.7-13.13l12.41-5.05c0.94-0.38,1.39-1.44,1.02-2.37c-0.38-0.93-1.44-1.39-2.37-1.01
			l-0.02,0.01l-16.66,6.77c-0.69,0.28-1.14,0.96-1.14,1.7c0.01,0.75,0.47,1.42,1.16,1.69l38.63,15.05c0.43,0.17,0.9,0.17,1.32,0
			l38.63-15.05c0.7-0.27,1.16-0.94,1.16-1.69C-217.54,49.26-217.99,48.59-218.69,48.31L-218.69,48.31z" class="lbGWFAOS_1"></path>
		<path d="M-218.7,68.4l-15.82-6.23c-0.93-0.38-2,0.08-2.37,1.01c-0.38,0.93,0.08,2,1.01,2.37l0.03,0.01l11.48,4.52L-258,83.19
			l-33.7-13.12l12.31-4.99c0.93-0.38,1.38-1.44,1.01-2.38c-0.38-0.93-1.44-1.38-2.38-1.01l-16.56,6.71
			c-0.69,0.28-1.14,0.96-1.14,1.7c0.01,0.75,0.47,1.42,1.16,1.69l38.63,15.05c0.43,0.17,0.9,0.17,1.32,0l38.63-15.05
			c0.7-0.27,1.16-0.95,1.16-1.7C-217.54,69.35-218,68.68-218.7,68.4L-218.7,68.4z" class="lbGWFAOS_2"></path>
	</g>
</g>
<g id="圖層_2">
	<path class="st2 lbGWFAOS_3" width="37" height="37" d="M-127 39 L-90 39 L-90 76 L-127 76 Z"></path>
	<path class="st2 lbGWFAOS_4" d="M-69.88,37.2L-105.04,57.5L-69.88,77.8Z"></path>
	<path class="st2 lbGWFAOS_5" d="M-145,34A18,18 0,1,1 -109,34A18,18 0,1,1 -145,34"></path>
	<g>
		<path class="st3 lbGWFAOS_6" d="M66.5,30L86.5,51L66.5,71"></path>
		<path class="st3 lbGWFAOS_7" d="M33.5,71L13.5,50L33.5,30"></path>
		<path class="st3 lbGWFAOS_8" d="M62.5,25L37.5,75"></path>
	</g>
	<path class="st2 lbGWFAOS_9" d="M-258,15L-296,30L-258,45L-220,30Z"></path>
	<path class="st2 lbGWFAOS_10" d="M-236,43L-220,50L-258,65L-296,50L-280,43"></path>
	<path class="st2 lbGWFAOS_11" d="M-236,63L-220,70L-258,85L-296,70L-280,63"></path>
</g>
<style data-made-with="vivus-instant">.lbGWFAOS_0{stroke-dasharray:322 324;stroke-dashoffset:323;animation:lbGWFAOS_draw 2000ms linear 0ms forwards;}.lbGWFAOS_1{stroke-dasharray:239 241;stroke-dashoffset:240;animation:lbGWFAOS_draw 2000ms linear 90ms forwards;}.lbGWFAOS_2{stroke-dasharray:238 240;stroke-dashoffset:239;animation:lbGWFAOS_draw 2000ms linear 181ms forwards;}.lbGWFAOS_3{stroke-dasharray:148 150;stroke-dashoffset:149;animation:lbGWFAOS_draw 2000ms linear 272ms forwards;}.lbGWFAOS_4{stroke-dasharray:122 124;stroke-dashoffset:123;animation:lbGWFAOS_draw 2000ms linear 363ms forwards;}.lbGWFAOS_5{stroke-dasharray:114 116;stroke-dashoffset:115;animation:lbGWFAOS_draw 2000ms linear 454ms forwards;}.lbGWFAOS_6{stroke-dasharray:58 60;stroke-dashoffset:59;animation:lbGWFAOS_draw 2000ms linear 545ms forwards;}.lbGWFAOS_7{stroke-dasharray:58 60;stroke-dashoffset:59;animation:lbGWFAOS_draw 2000ms linear 636ms forwards;}.lbGWFAOS_8{stroke-dasharray:56 58;stroke-dashoffset:57;animation:lbGWFAOS_draw 2000ms linear 727ms forwards;}.lbGWFAOS_9{stroke-dasharray:164 166;stroke-dashoffset:165;animation:lbGWFAOS_draw 2000ms linear 818ms forwards;}.lbGWFAOS_10{stroke-dasharray:117 119;stroke-dashoffset:118;animation:lbGWFAOS_draw 2000ms linear 909ms forwards;}.lbGWFAOS_11{stroke-dasharray:117 119;stroke-dashoffset:118;animation:lbGWFAOS_draw 2000ms linear 1000ms forwards;}@keyframes lbGWFAOS_draw{100%{stroke-dashoffset:0;}}@keyframes lbGWFAOS_fade{0%{stroke-opacity:1;}94.44444444444444%{stroke-opacity:1;}100%{stroke-opacity:0;}}</style></svg>
