<?xml version="1.0" encoding="utf-8"?>
<!-- Generator: Adobe Illustrator 23.0.1, SVG Export Plug-In . SVG Version: 6.00 Build 0)  -->
<svg version="1.1" xmlns="http://www.w3.org/2000/svg" xmlns:xlink="http://www.w3.org/1999/xlink" x="0px" y="0px"
	 viewBox="0 0 100 100" style="enable-background:new 0 0 100 100;" xml:space="preserve">
<style type="text/css">
	.st0{display:none;}
	.st1{display:inline;}
	.st2{fill:none;stroke:#346970;stroke-linecap:round;stroke-linejoin:round;stroke-miterlimit:10;}
	.st3{fill:none;stroke:#346970;stroke-linecap:round;stroke-miterlimit:10;}
</style>
<g id="圖層_1" class="st0">
	<g class="st1">
		<path d="M-218.7,28.2l-38.63-15.05c-0.43-0.17-0.9-0.17-1.32,0L-297.3,28.2c-0.7,0.27-1.16,0.95-1.16,1.7
			c0,0.75,0.46,1.43,1.16,1.7l38.63,15.05c0.43,0.17,0.9,0.17,1.32,0l38.63-15.05c0.7-0.27,1.16-0.95,1.16-1.7
			C-217.54,29.15-218,28.48-218.7,28.2z M-258,42.99l-33.61-13.09L-258,16.81l33.61,13.09L-258,42.99z"/>
		<path d="M-218.69,48.31l-16.26-6.51c-0.6-0.25-1.3-0.16-1.82,0.24c-0.52,0.4-0.78,1.05-0.69,1.7c0.09,0.65,0.52,1.2,1.13,1.44
			l0.02,0.01l11.97,4.8L-258,63.09l-33.7-13.13l12.41-5.05c0.94-0.38,1.39-1.44,1.02-2.37c-0.38-0.93-1.44-1.39-2.37-1.01
			l-0.02,0.01l-16.66,6.77c-0.69,0.28-1.14,0.96-1.14,1.7c0.01,0.75,0.47,1.42,1.16,1.69l38.63,15.05c0.43,0.17,0.9,0.17,1.32,0
			l38.63-15.05c0.7-0.27,1.16-0.94,1.16-1.69C-217.54,49.26-217.99,48.59-218.69,48.31L-218.69,48.31z"/>
		<path d="M-218.7,68.4l-15.82-6.23c-0.93-0.38-2,0.08-2.37,1.01c-0.38,0.93,0.08,2,1.01,2.37l0.03,0.01l11.48,4.52L-258,83.19
			l-33.7-13.12l12.31-4.99c0.93-0.38,1.38-1.44,1.01-2.38c-0.38-0.93-1.44-1.38-2.38-1.01l-16.56,6.71
			c-0.69,0.28-1.14,0.96-1.14,1.7c0.01,0.75,0.47,1.42,1.16,1.69l38.63,15.05c0.43,0.17,0.9,0.17,1.32,0l38.63-15.05
			c0.7-0.27,1.16-0.95,1.16-1.7C-217.54,69.35-218,68.68-218.7,68.4L-218.7,68.4z"/>
	</g>
</g>
<g id="圖層_2">
	<rect x="-127" y="39" class="st2" width="37" height="37"/>
	<polygon class="st2" points="-69.88,37.2 -105.04,57.5 -69.88,77.8 	"/>
	<circle class="st2" cx="-127" cy="34" r="18"/>
	<g>
		<polyline class="st3" points="66.5,30 86.5,51 66.5,71 		"/>
		<polyline class="st3" points="33.5,71 13.5,50 33.5,30 		"/>
		<line class="st3" x1="62.5" y1="25" x2="37.5" y2="75"/>
	</g>
	<polygon class="st2" points="-258,15 -296,30 -258,45 -220,30 	"/>
	<polyline class="st2" points="-236,43 -220,50 -258,65 -296,50 -280,43 	"/>
	<polyline class="st2" points="-236,63 -220,70 -258,85 -296,70 -280,63 	"/>
</g>
</svg>
