<?xml version="1.0" encoding="utf-8"?>
<!-- Generator: Adobe Illustrator 23.0.1, SVG Export Plug-In . SVG Version: 6.00 Build 0)  -->
<svg version="1.1" xmlns="http://www.w3.org/2000/svg" xmlns:xlink="http://www.w3.org/1999/xlink" x="0px" y="0px"
	 viewBox="0 0 100 100" style="enable-background:new 0 0 100 100;" xml:space="preserve">
<style type="text/css">
	.st0{display:none;}
	.st1{display:inline;}
	.st2{fill:none;stroke:#346970;stroke-linecap:round;stroke-linejoin:round;stroke-miterlimit:10;}
	.st3{fill:none;stroke:#346970;stroke-linecap:round;stroke-miterlimit:10;}
</style>
<g id="圖層_1" class="st0">
	<g class="st1">
		<path d="M89.3,28.2L50.66,13.16c-0.43-0.17-0.9-0.17-1.32,0L10.7,28.2c-0.7,0.27-1.16,0.95-1.16,1.7c0,0.75,0.46,1.43,1.16,1.7
			l38.63,15.05c0.43,0.17,0.9,0.17,1.32,0L89.3,31.6c0.7-0.27,1.16-0.95,1.16-1.7C90.46,29.15,90,28.48,89.3,28.2z M50,42.99
			L16.39,29.9L50,16.81L83.61,29.9L50,42.99z"/>
		<path d="M89.31,48.31l-16.26-6.51c-0.6-0.25-1.3-0.16-1.82,0.24c-0.52,0.4-0.78,1.05-0.69,1.7c0.09,0.65,0.52,1.2,1.13,1.44
			l0.02,0.01l11.97,4.8L50,63.09L16.3,49.96l12.41-5.05c0.94-0.38,1.39-1.44,1.02-2.37c-0.38-0.93-1.44-1.39-2.37-1.01l-0.02,0.01
			l-16.66,6.77c-0.69,0.28-1.14,0.96-1.14,1.7c0.01,0.75,0.47,1.42,1.16,1.69l38.63,15.05c0.43,0.17,0.9,0.17,1.32,0L89.3,51.7
			c0.7-0.27,1.16-0.94,1.16-1.69C90.46,49.26,90.01,48.59,89.31,48.31L89.31,48.31z"/>
		<path d="M89.3,68.4l-15.82-6.23c-0.93-0.38-2,0.08-2.37,1.01c-0.38,0.93,0.08,2,1.01,2.37l0.03,0.01l11.48,4.52L50,83.19
			l-33.7-13.12l12.31-4.99c0.93-0.38,1.38-1.44,1.01-2.38c-0.38-0.93-1.44-1.38-2.38-1.01l-16.56,6.71
			c-0.69,0.28-1.14,0.96-1.14,1.7c0.01,0.75,0.47,1.42,1.16,1.69l38.63,15.05c0.43,0.17,0.9,0.17,1.32,0L89.3,71.8
			c0.7-0.27,1.16-0.95,1.16-1.7C90.46,69.35,90,68.68,89.3,68.4L89.3,68.4z"/>
	</g>
</g>
<g id="圖層_2">
	<rect x="181" y="39" class="st2" width="37" height="37"/>
	<polygon class="st2" points="238.12,37.2 202.96,57.5 238.12,77.8 	"/>
	<circle class="st2" cx="181" cy="34" r="18"/>
	<g>
		<polyline class="st3" points="374.5,30 394.5,51 374.5,71 		"/>
		<polyline class="st3" points="341.5,71 321.5,50 341.5,30 		"/>
		<line class="st3" x1="370.5" y1="25" x2="345.5" y2="75"/>
	</g>
	<polygon class="st2" points="50,15 12,30 50,45 88,30 	"/>
	<polyline class="st2" points="72,43 88,50 50,65 12,50 28,43 	"/>
	<polyline class="st2" points="72,63 88,70 50,85 12,70 28,63 	"/>
</g>
</svg>
