<!--?xml version="1.0" encoding="utf-8"?-->
<!-- Generator: Adobe Illustrator 23.0.1, SVG Export Plug-In . SVG Version: 6.00 Build 0)  -->
<svg version="1.1" xmlns="http://www.w3.org/2000/svg" xmlns:xlink="http://www.w3.org/1999/xlink" x="0px" y="0px" viewBox="0 0 100 100" style="" xml:space="preserve">
<style type="text/css">
	.st0{display:none;}
	.st1{display:inline;}
	.st2{fill:none;stroke:#346970;stroke-linecap:round;stroke-linejoin:round;stroke-miterlimit:10;}
	.st3{fill:none;stroke:#346970;stroke-linecap:round;stroke-miterlimit:10;}
</style>
<g id="圖層_1" class="st0">
	<g class="st1">
		<path d="M89.3,28.2L50.66,13.16c-0.43-0.17-0.9-0.17-1.32,0L10.7,28.2c-0.7,0.27-1.16,0.95-1.16,1.7c0,0.75,0.46,1.43,1.16,1.7
			l38.63,15.05c0.43,0.17,0.9,0.17,1.32,0L89.3,31.6c0.7-0.27,1.16-0.95,1.16-1.7C90.46,29.15,90,28.48,89.3,28.2z M50,42.99
			L16.39,29.9L50,16.81L83.61,29.9L50,42.99z" class="vdmKedSS_0"></path>
		<path d="M89.31,48.31l-16.26-6.51c-0.6-0.25-1.3-0.16-1.82,0.24c-0.52,0.4-0.78,1.05-0.69,1.7c0.09,0.65,0.52,1.2,1.13,1.44
			l0.02,0.01l11.97,4.8L50,63.09L16.3,49.96l12.41-5.05c0.94-0.38,1.39-1.44,1.02-2.37c-0.38-0.93-1.44-1.39-2.37-1.01l-0.02,0.01
			l-16.66,6.77c-0.69,0.28-1.14,0.96-1.14,1.7c0.01,0.75,0.47,1.42,1.16,1.69l38.63,15.05c0.43,0.17,0.9,0.17,1.32,0L89.3,51.7
			c0.7-0.27,1.16-0.94,1.16-1.69C90.46,49.26,90.01,48.59,89.31,48.31L89.31,48.31z" class="vdmKedSS_1"></path>
		<path d="M89.3,68.4l-15.82-6.23c-0.93-0.38-2,0.08-2.37,1.01c-0.38,0.93,0.08,2,1.01,2.37l0.03,0.01l11.48,4.52L50,83.19
			l-33.7-13.12l12.31-4.99c0.93-0.38,1.38-1.44,1.01-2.38c-0.38-0.93-1.44-1.38-2.38-1.01l-16.56,6.71
			c-0.69,0.28-1.14,0.96-1.14,1.7c0.01,0.75,0.47,1.42,1.16,1.69l38.63,15.05c0.43,0.17,0.9,0.17,1.32,0L89.3,71.8
			c0.7-0.27,1.16-0.95,1.16-1.7C90.46,69.35,90,68.68,89.3,68.4L89.3,68.4z" class="vdmKedSS_2"></path>
	</g>
</g>
<g id="圖層_2">
	<path class="st2 vdmKedSS_3" width="37" height="37" d="M181 39 L218 39 L218 76 L181 76 Z"></path>
	<path class="st2 vdmKedSS_4" d="M238.12,37.2L202.96,57.5L238.12,77.8Z"></path>
	<path class="st2 vdmKedSS_5" d="M163,34A18,18 0,1,1 199,34A18,18 0,1,1 163,34"></path>
	<g>
		<path class="st3 vdmKedSS_6" d="M374.5,30L394.5,51L374.5,71"></path>
		<path class="st3 vdmKedSS_7" d="M341.5,71L321.5,50L341.5,30"></path>
		<path class="st3 vdmKedSS_8" d="M370.5,25L345.5,75"></path>
	</g>
	<path class="st2 vdmKedSS_9" d="M50,15L12,30L50,45L88,30Z"></path>
	<path class="st2 vdmKedSS_10" d="M72,43L88,50L50,65L12,50L28,43"></path>
	<path class="st2 vdmKedSS_11" d="M72,63L88,70L50,85L12,70L28,63"></path>
</g>
<style data-made-with="vivus-instant">.vdmKedSS_0{stroke-dasharray:322 324;stroke-dashoffset:323;animation:vdmKedSS_draw 2000ms linear 0ms forwards;}.vdmKedSS_1{stroke-dasharray:239 241;stroke-dashoffset:240;animation:vdmKedSS_draw 2000ms linear 90ms forwards;}.vdmKedSS_2{stroke-dasharray:238 240;stroke-dashoffset:239;animation:vdmKedSS_draw 2000ms linear 181ms forwards;}.vdmKedSS_3{stroke-dasharray:148 150;stroke-dashoffset:149;animation:vdmKedSS_draw 2000ms linear 272ms forwards;}.vdmKedSS_4{stroke-dasharray:122 124;stroke-dashoffset:123;animation:vdmKedSS_draw 2000ms linear 363ms forwards;}.vdmKedSS_5{stroke-dasharray:114 116;stroke-dashoffset:115;animation:vdmKedSS_draw 2000ms linear 454ms forwards;}.vdmKedSS_6{stroke-dasharray:58 60;stroke-dashoffset:59;animation:vdmKedSS_draw 2000ms linear 545ms forwards;}.vdmKedSS_7{stroke-dasharray:58 60;stroke-dashoffset:59;animation:vdmKedSS_draw 2000ms linear 636ms forwards;}.vdmKedSS_8{stroke-dasharray:56 58;stroke-dashoffset:57;animation:vdmKedSS_draw 2000ms linear 727ms forwards;}.vdmKedSS_9{stroke-dasharray:164 166;stroke-dashoffset:165;animation:vdmKedSS_draw 2000ms linear 818ms forwards;}.vdmKedSS_10{stroke-dasharray:117 119;stroke-dashoffset:118;animation:vdmKedSS_draw 2000ms linear 909ms forwards;}.vdmKedSS_11{stroke-dasharray:117 119;stroke-dashoffset:118;animation:vdmKedSS_draw 2000ms linear 1000ms forwards;}@keyframes vdmKedSS_draw{100%{stroke-dashoffset:0;}}@keyframes vdmKedSS_fade{0%{stroke-opacity:1;}94.44444444444444%{stroke-opacity:1;}100%{stroke-opacity:0;}}</style></svg>
