<?xml version="1.0" encoding="utf-8"?>
<!-- Generator: Adobe Illustrator 23.0.1, SVG Export Plug-In . SVG Version: 6.00 Build 0)  -->
<svg version="1.1" id="圖層_1" xmlns="http://www.w3.org/2000/svg" xmlns:xlink="http://www.w3.org/1999/xlink" x="0px" y="0px"
	 viewBox="0 0 562 39" style="enable-background:new 0 0 562 39;" xml:space="preserve">
<style type="text/css">
	.st0{fill:#DCCABD;}
	.st1{fill:#AA9988;stroke:#DCCABD;stroke-miterlimit:10;}
</style>
<g>
	<g>
		<path class="st0" d="M227.5,35.76V2.97h-5.58V1.62h17.52v1.35h-5.64v15.16h15.32V2.97h-5.53V1.62h17.41v1.35h-5.58v32.79h5.58
			v1.35h-17.41v-1.35h5.53V19.49H233.8v16.28h5.64v1.35h-17.52v-1.35H227.5z"/>
		<path class="st0" d="M284.85,25.12h-13.39c-0.12,5.22,0.17,8.44,0.87,9.65c0.71,1.21,1.97,1.81,3.78,1.81
			c3.74,0,6.27-2.17,7.6-6.51h1.14c-0.58,2.63-1.68,4.57-3.31,5.82c-1.62,1.25-3.43,1.88-5.43,1.88c-2.84,0-5.31-1.05-7.41-3.16
			c-2.1-2.11-3.15-4.76-3.15-7.95c0-3.11,1.03-5.72,3.08-7.83c2.06-2.12,4.44-3.18,7.16-3.18c2.36,0,4.43,0.84,6.21,2.51
			C283.78,19.84,284.73,22.16,284.85,25.12z M271.46,23.93h7.7c0.14-1.25,0.21-2.21,0.21-2.86c0-2.82-1.28-4.23-3.84-4.23
			c-1.27,0-2.27,0.34-2.99,1.02c-0.72,0.68-1.08,1.6-1.08,2.77V23.93z"/>
		<path class="st0" d="M291.49,35.76V2.97h-3.78V1.62h3.63c2.43,0,4.21-0.13,5.32-0.4v34.54h3.73v1.35h-12.68v-1.35H291.49z"/>
		<path class="st0" d="M306.18,35.76V2.97h-3.78V1.62h3.63c2.43,0,4.21-0.13,5.32-0.4v34.54h3.73v1.35H302.4v-1.35H306.18z"/>
		<path class="st0" d="M318.38,26.66c0-3.05,1.05-5.65,3.15-7.79s4.7-3.22,7.81-3.22c3.03,0,5.61,1.03,7.71,3.08
			c2.11,2.06,3.16,4.63,3.16,7.71c0,3.16-1.09,5.84-3.28,8.03c-2.19,2.2-4.77,3.29-7.75,3.29c-2.93,0-5.46-1.07-7.6-3.22
			S318.38,29.78,318.38,26.66z M334.26,26.66c0-3.25-0.11-5.39-0.33-6.43s-0.71-1.87-1.48-2.47c-0.77-0.61-1.82-0.91-3.16-0.91
			c-1.27,0-2.32,0.31-3.14,0.94s-1.33,1.46-1.52,2.5c-0.19,1.04-0.29,3.19-0.29,6.43c0,3.26,0.12,5.43,0.36,6.48
			c0.24,1.06,0.76,1.89,1.56,2.49s1.81,0.9,3.03,0.9c1.23,0,2.26-0.3,3.08-0.91c0.82-0.61,1.34-1.46,1.56-2.54
			S334.26,29.89,334.26,26.66z"/>
	</g>
	<line class="st1" x1="375" y1="22.25" x2="562" y2="22.25"/>
	<line class="st1" x1="0" y1="22.25" x2="187" y2="22.25"/>
</g>
</svg>
