<?xml version="1.0" encoding="utf-8"?>
<!-- Generator: Adobe Illustrator 23.0.1, SVG Export Plug-In . SVG Version: 6.00 Build 0)  -->
<svg version="1.1" id="圖層_1" xmlns="http://www.w3.org/2000/svg" xmlns:xlink="http://www.w3.org/1999/xlink" x="0px" y="0px"
	 viewBox="0 0 84 44" style="enable-background:new 0 0 84 44;" xml:space="preserve">
<style type="text/css">
	.st0{fill:#AA9988;}
	.st1{fill:#DCCABD;}
</style>
<polygon class="st0" points="18.99,247.25 68.76,247.19 54.02,236.04 53.55,244.39 16.4,244.28 "/>
<g>
	<path class="st1" d="M-94.3,95.56V34.3h-10.83v-2.52h33.52v2.52h-10.93v61.25h10.93v2.52h-33.52v-2.52H-94.3z"/>
</g>
<g>
	<path class="st1" d="M8.32,40.66V4.04H0.77V1.31h4.71c5.57,0,9.99-0.23,13.28-0.7v10.33h0.21c2.82-6.89,7.85-10.33,15.1-10.33
		c7.89,0,12.24,3.66,13.06,10.98h0.21c3.11-7.32,8.26-10.98,15.47-10.98c3.21,0,5.92,0.8,8.11,2.41c2.2,1.61,3.55,3.46,4.07,5.57
		c0.52,2.11,0.78,5.59,0.78,10.44v21.63h7.44v2.73h-24.9v-2.73h7.01V14.21c0-4.18-0.24-7.05-0.72-8.62
		c-0.48-1.57-1.78-2.36-3.88-2.36c-2.89,0-5.86,1.63-8.91,4.9c-3.05,3.27-4.58,9.47-4.58,18.61v13.92h6.91v2.73H29.9v-2.73h6.96
		V19.94c0-8.07-0.29-12.87-0.88-14.4c-0.59-1.53-1.99-2.3-4.2-2.3c-3.04,0-5.69,1.34-7.95,4.02c-2.27,2.68-3.68,5.28-4.23,7.82
		c-0.55,2.54-0.83,6.57-0.83,12.1v13.49h6.91v2.73H0.77v-2.73H8.32z"/>
</g>
<g>
	<g>
		<path class="st1" d="M-198.43,193.77v26.65h5.61c1.98,0,3.65-0.19,5.03-0.58c1.37-0.39,2.61-1.43,3.71-3.13
			c1.1-1.7,1.72-4.36,1.88-7.97h2.41v26.32h-2.41c-0.25-5-1.21-8.3-2.9-9.9c-1.68-1.59-4.26-2.39-7.72-2.39h-5.61v28.41h12.65
			c7.17,0,12.13-1.51,14.9-4.52c2.76-3.01,4.41-7.65,4.94-13.93h2.36l-0.6,20.81h-55.1v-2.36h9.87v-57.42h-9.87v-2.36h52.83
			l1.07,16.59h-2.36c-0.8-5.04-2.46-8.67-4.96-10.89c-2.5-2.22-6.67-3.34-12.51-3.34H-198.43z"/>
		<path class="st1" d="M-148.75,251.19v-31.7h-6.58v-2.36h4.22c4.17,0,7.96-0.23,11.35-0.69v9.04h0.19c3.18-6.33,7.68-9.5,13.49-9.5
			c2.72,0,4.95,0.7,6.7,2.09c1.75,1.39,2.94,3.03,3.57,4.91c0.63,1.88,0.95,4.8,0.95,8.76v19.46h7.23v2.36h-22.43v-2.36h6.16v-23.17
			c0-3.55-0.22-6.01-0.67-7.37c-0.45-1.36-1.61-2.04-3.5-2.04c-3,0-5.69,1.54-8.09,4.61c-2.39,3.07-3.59,7.21-3.59,12.4v15.57h6.07
			v2.36h-21.64v-2.36H-148.75z"/>
		<path class="st1" d="M-91.33,219.49l12.98,25.35l11.31-25.35h-8.06v-2.36h16.41v2.36h-6.16l-18.68,42.31
			c-2.69,6.05-4.97,10.29-6.84,12.7c-1.87,2.41-4.15,3.61-6.84,3.61c-1.67,0-2.96-0.53-3.87-1.6c-0.91-1.07-1.37-2.26-1.37-3.59
			c0-1.24,0.39-2.24,1.18-3.01s1.72-1.16,2.8-1.16c1.51,0,2.69,0.7,3.52,2.09s1.53,2.09,2.09,2.09c0.83,0,1.73-0.76,2.69-2.27
			c0.96-1.51,2.41-4.46,4.36-8.85l3.01-6.81l-18.31-35.5h-5.52v-2.36h22.29v2.36H-91.33z"/>
		<path class="st1" d="M-30.89,232.75v-4.73c0-3.86-0.32-6.4-0.95-7.6c-0.63-1.21-2.34-1.81-5.12-1.81c-5,0-7.51,0.96-7.51,2.87
			c0,0.56,0.21,1.17,0.63,1.83c0.42,0.67,0.63,1.45,0.63,2.34c0,1.27-0.42,2.23-1.25,2.9c-0.83,0.67-1.78,1-2.83,1
			c-1.36,0-2.41-0.42-3.15-1.28c-0.74-0.85-1.11-1.85-1.11-2.99c0-2.47,1.44-4.55,4.33-6.23c2.89-1.68,6.91-2.53,12.07-2.53
			c4.14,0,7.17,0.48,9.08,1.44c1.92,0.96,3.1,2.15,3.55,3.57c0.45,1.42,0.67,3.43,0.67,6.02v17.06c0,2.5,0.18,4.06,0.53,4.68
			c0.36,0.62,0.9,0.93,1.65,0.93c1.11,0,2.19-0.76,3.24-2.27h1.11c-0.8,4.51-3.43,6.77-7.88,6.77c-4.29,0-6.86-2.47-7.69-7.42
			c-3.61,4.94-7.85,7.42-12.7,7.42c-3.21,0-5.78-0.87-7.69-2.62c-1.92-1.75-2.87-3.88-2.87-6.42
			C-54.16,237.8-46.4,233.49-30.89,232.75z M-30.89,239.89v-5c-5.72,0.22-9.49,1.07-11.31,2.57c-1.82,1.5-2.73,3.67-2.73,6.51
			c0,2.07,0.55,3.68,1.64,4.82c1.1,1.14,2.36,1.71,3.78,1.71c1.82,0,3.47-0.61,4.94-1.83s2.45-2.45,2.94-3.68
			S-30.89,242.05-30.89,239.89z"/>
	</g>
	<g>
		<path class="st1" d="M139.38,190.41l0.28,16.13h-2.18c-3.09-9.67-8.54-14.51-16.36-14.51c-4.33,0-7.69,1.2-10.08,3.59
			s-3.59,4.87-3.59,7.44c0,2.38,1,4.4,2.99,6.07c1.99,1.67,5.63,2.96,10.91,3.87c5.28,0.91,9.31,2.02,12.07,3.34
			c2.77,1.31,5.1,3.5,7,6.56c1.9,3.06,2.85,6.57,2.85,10.52c0,6.09-1.99,11.15-5.96,15.2c-3.97,4.05-8.89,6.07-14.76,6.07
			c-4.79,0-9.56-1.78-14.32-5.33l-4.36,3.89h-1.62v-17.38h1.99c1.82,5.47,4.37,9.58,7.65,12.33c3.28,2.75,6.86,4.12,10.75,4.12
			c3.86,0,7.41-1.27,10.64-3.82c3.23-2.55,4.84-5.77,4.84-9.66c0-3.27-1.12-6.03-3.36-8.27c-2.24-2.24-5.87-3.78-10.89-4.63
			c-5.02-0.85-8.88-1.84-11.56-2.97c-2.69-1.13-4.99-3.09-6.91-5.89c-1.92-2.79-2.87-5.89-2.87-9.29c0-4.7,1.67-8.89,5.01-12.58
			c3.34-3.69,7.86-5.54,13.58-5.54c4.79,0,9.25,1.51,13.39,4.54c1.14-1.08,2.13-2.35,2.97-3.8H139.38z"/>
		<path class="st1" d="M158.15,250.89v-57.42h-7.23v-2.36h6.95c4.17,0,7.28-0.23,9.32-0.69v34.57h0.19
			c3.09-5.84,7.41-8.76,12.98-8.76c2.25,0,4.45,0.58,6.58,1.74c2.13,1.16,3.5,2.82,4.1,4.98c0.6,2.16,0.9,5.62,0.9,10.38v17.57h5.98
			v2.36h-20.95v-2.36h5.98v-18.45c0-5-0.14-8.57-0.42-10.68c-0.28-2.12-1.67-3.17-4.17-3.17c-2.69,0-4.95,1.15-6.79,3.45
			c-1.84,2.3-3.03,4.65-3.57,7.04c-0.54,2.39-0.81,6.31-0.81,11.75v10.06h5.98v2.36h-21.55v-2.36H158.15z"/>
		<path class="st1" d="M218.49,216.13v34.76h6.07v2.36h-21.55v-2.36h6.49v-31.7h-6.49v-2.36h6.58
			C212.75,216.82,215.71,216.59,218.49,216.13z M209.18,198.28c0-1.36,0.5-2.53,1.51-3.52c1-0.99,2.19-1.48,3.55-1.48
			c1.36,0,2.54,0.49,3.54,1.46s1.51,2.16,1.51,3.54c0,1.45-0.49,2.66-1.48,3.62c-0.99,0.96-2.18,1.44-3.57,1.44
			c-1.39,0-2.58-0.49-3.57-1.46C209.67,200.9,209.18,199.71,209.18,198.28z"/>
		<path class="st1" d="M236.24,250.89v-57.42h-7.23v-2.36h6.95c4.17,0,7.28-0.23,9.31-0.69v34.57h0.19
			c3.09-5.84,7.42-8.76,12.98-8.76c2.26,0,4.45,0.58,6.58,1.74c2.13,1.16,3.5,2.82,4.1,4.98c0.6,2.16,0.9,5.62,0.9,10.38v17.57h5.98
			v2.36h-20.95v-2.36h5.98v-18.45c0-5-0.14-8.57-0.42-10.68c-0.28-2.12-1.67-3.17-4.17-3.17c-2.69,0-4.95,1.15-6.79,3.45
			c-1.84,2.3-3.03,4.65-3.57,7.04c-0.54,2.39-0.81,6.31-0.81,11.75v10.06h5.98v2.36h-21.55v-2.36H236.24z"/>
	</g>
</g>
<polygon class="st0" points="-46.6,43.79 -18.57,11.68 -34.06,14.89 -28.95,19.91 -49.97,43.79 "/>
<path class="st0" d="M-82.68,185.24l23.49-13.74l-1.17,9.45c34.75-5.77,67.73-23.91,83.73-40.6c6.06-6.32,9.44-12.28,9.67-16.96
	c-18.03,6.76-39.45,8.39-51.13,2.6c-5.84-2.89-8.69-7.52-8.22-13.21c0.69-8.45,10.27-13.99,24.41-13.99c0.01,0,0.02,0,0.03,0
	c8.66,0,17.52,2.19,24.32,5.83c7.21,3.87,11.59,9.15,12.79,15.28c5.21-2.17,10.01-4.75,14.02-7.72
	c7.77-5.75,16.24-15.42,12.43-28.86l2.42-0.59c3.29,11.6-1.31,22.42-13.3,31.29c-4.4,3.26-9.63,6.08-15.27,8.38
	c0.23,5.49-3.33,12.21-10.31,19.5c-19.06,19.88-61.73,41.77-103.25,43.18L-82.68,185.24z M-62.27,176.06l-11.01,6.44
	c3.46-0.25,6.91-0.63,10.35-1.14L-62.27,176.06z M-1.89,101.79c-9.68,0-21.22,2.83-21.93,11.5c-0.39,4.76,1.94,8.3,6.9,10.76
	c11.07,5.48,32.28,3.83,49.78-2.86c-2.03-12.28-18.94-19.4-34.74-19.4C-1.87,101.79-1.88,101.79-1.89,101.79z"/>
</svg>
