<?xml version="1.0" encoding="utf-8"?>
<!-- Generator: Adobe Illustrator 23.0.0, SVG Export Plug-In . SVG Version: 6.00 Build 0)  -->
<svg version="1.1" id="圖層_1" xmlns="http://www.w3.org/2000/svg" xmlns:xlink="http://www.w3.org/1999/xlink" x="0px" y="0px"
	 viewBox="0 0 84 44.3" style="enable-background:new 0 0 84 44.3;" xml:space="preserve">
<style type="text/css">
	.st0{fill:#AA9988;}
	.st1{fill:#DCCABD;}
	.st2{fill:none;stroke:#DCCABD;stroke-miterlimit:10;}
</style>
<polygon class="st0" points="19,247.5 68.8,247.5 54,236.3 53.5,244.7 16.4,244.6 "/>
<g>
	<path class="st1" d="M-94.3,95.8V34.6h-10.8v-2.5h33.5v2.5h-10.9v61.3h10.9v2.5h-33.5v-2.5L-94.3,95.8L-94.3,95.8z"/>
</g>
<g>
	<path class="st2" d="M8.3,40.9V4.3H0.8V1.6h4.7c5.6,0,10-0.2,13.3-0.7v10.3H19c2.8-6.9,7.9-10.3,15.1-10.3c7.9,0,12.2,3.7,13.1,11
		h0.2c3.1-7.3,8.3-11,15.5-11c3.2,0,5.9,0.8,8.1,2.4c2.2,1.6,3.6,3.5,4.1,5.6s0.8,5.6,0.8,10.4v21.6h7.4v2.7H58.3v-2.7h7V14.5
		c0-4.2-0.2-7-0.7-8.6s-1.8-2.4-3.9-2.4c-2.9,0-5.9,1.6-8.9,4.9s-4.6,9.5-4.6,18.6v13.9h6.9v2.7H29.9v-2.7h7V20.2
		c0-8.1-0.3-12.9-0.9-14.4s-2-2.3-4.2-2.3c-3,0-5.7,1.3-8,4c-2.3,2.7-3.7,5.3-4.2,7.8s-0.8,6.6-0.8,12.1V41h6.9v2.7H0.8V41L8.3,40.9
		L8.3,40.9z"/>
</g>
<g>
	<g>
		<path class="st1" d="M-198.4,194.1v26.6h5.6c2,0,3.6-0.2,5-0.6c1.4-0.4,2.6-1.4,3.7-3.1c1.1-1.7,1.7-4.4,1.9-8h2.4v26.3h-2.4
			c-0.3-5-1.2-8.3-2.9-9.9c-1.7-1.6-4.3-2.4-7.7-2.4h-5.6v28.4h12.6c7.2,0,12.1-1.5,14.9-4.5c2.8-3,4.4-7.6,4.9-13.9h2.4l-0.6,20.8
			h-55.1v-2.4h9.9V194h-9.9v-2.4h52.8l1.1,16.6h-2.4c-0.8-5-2.5-8.7-5-10.9s-6.7-3.3-12.5-3.3L-198.4,194.1L-198.4,194.1z"/>
		<path class="st1" d="M-148.8,251.5v-31.7h-6.6v-2.4h4.2c4.2,0,8-0.2,11.4-0.7v9h0.2c3.2-6.3,7.7-9.5,13.5-9.5
			c2.7,0,4.9,0.7,6.7,2.1s2.9,3,3.6,4.9s0.9,4.8,0.9,8.8v19.5h7.2v2.4h-22.4v-2.4h6.2v-23.2c0-3.6-0.2-6-0.7-7.4s-1.6-2-3.5-2
			c-3,0-5.7,1.5-8.1,4.6c-2.4,3.1-3.6,7.2-3.6,12.4v15.6h6.1v2.4h-21.6v-2.4L-148.8,251.5L-148.8,251.5z"/>
		<path class="st1" d="M-91.3,219.8l13,25.4l11.3-25.4h-8.1v-2.4h16.4v2.4h-6.2l-18.7,42.3c-2.7,6-5,10.3-6.8,12.7s-4.2,3.6-6.8,3.6
			c-1.7,0-3-0.5-3.9-1.6s-1.4-2.3-1.4-3.6c0-1.2,0.4-2.2,1.2-3s1.7-1.2,2.8-1.2c1.5,0,2.7,0.7,3.5,2.1s1.5,2.1,2.1,2.1
			c0.8,0,1.7-0.8,2.7-2.3c1-1.5,2.4-4.5,4.4-8.9l3-6.8l-18.3-35.5h-5.5v-2.4h22.3v2.4L-91.3,219.8L-91.3,219.8z"/>
		<path class="st1" d="M-30.9,233v-4.7c0-3.9-0.3-6.4-1-7.6c-0.6-1.2-2.3-1.8-5.1-1.8c-5,0-7.5,1-7.5,2.9c0,0.6,0.2,1.2,0.6,1.8
			c0.4,0.7,0.6,1.4,0.6,2.3c0,1.3-0.4,2.2-1.3,2.9s-1.8,1-2.8,1c-1.4,0-2.4-0.4-3.2-1.3c-0.7-0.9-1.1-1.9-1.1-3
			c0-2.5,1.4-4.6,4.3-6.2c2.9-1.7,6.9-2.5,12.1-2.5c4.1,0,7.2,0.5,9.1,1.4c1.9,1,3.1,2.1,3.5,3.6c0.5,1.4,0.7,3.4,0.7,6v17.1
			c0,2.5,0.2,4.1,0.5,4.7c0.4,0.6,0.9,0.9,1.6,0.9c1.1,0,2.2-0.8,3.2-2.3h1.1c-0.8,4.5-3.4,6.8-7.9,6.8c-4.3,0-6.9-2.5-7.7-7.4
			c-3.6,4.9-7.8,7.4-12.7,7.4c-3.2,0-5.8-0.9-7.7-2.6c-1.9-1.8-2.9-3.9-2.9-6.4C-54.2,238.1-46.4,233.8-30.9,233z M-30.9,240.2v-5
			c-5.7,0.2-9.5,1.1-11.3,2.6c-1.8,1.5-2.7,3.7-2.7,6.5c0,2.1,0.5,3.7,1.6,4.8c1.1,1.1,2.4,1.7,3.8,1.7c1.8,0,3.5-0.6,4.9-1.8
			s2.5-2.4,2.9-3.7S-30.9,242.3-30.9,240.2z"/>
	</g>
	<g>
		<path class="st1" d="M139.4,190.7l0.3,16.1h-2.2c-3.1-9.7-8.5-14.5-16.4-14.5c-4.3,0-7.7,1.2-10.1,3.6s-3.6,4.9-3.6,7.4
			c0,2.4,1,4.4,3,6.1c2,1.7,5.6,3,10.9,3.9c5.3,0.9,9.3,2,12.1,3.3c2.8,1.3,5.1,3.5,7,6.6s2.9,6.6,2.9,10.5c0,6.1-2,11.1-6,15.2
			s-8.9,6.1-14.8,6.1c-4.8,0-9.6-1.8-14.3-5.3l-4.4,3.9h-1.6v-17.4h2c1.8,5.5,4.4,9.6,7.7,12.3s6.9,4.1,10.8,4.1
			c3.9,0,7.4-1.3,10.6-3.8c3.2-2.6,4.8-5.8,4.8-9.7c0-3.3-1.1-6-3.4-8.3s-5.9-3.8-10.9-4.6c-5-0.9-8.9-1.8-11.6-3
			c-2.7-1.1-5-3.1-6.9-5.9c-1.9-2.8-2.9-5.9-2.9-9.3c0-4.7,1.7-8.9,5-12.6c3.3-3.7,7.9-5.5,13.6-5.5c4.8,0,9.3,1.5,13.4,4.5
			c1.1-1.1,2.1-2.4,3-3.8L139.4,190.7L139.4,190.7z"/>
		<path class="st1" d="M158.1,251.2v-57.4h-7.2v-2.4h6.9c4.2,0,7.3-0.2,9.3-0.7v34.6h0.2c3.1-5.8,7.4-8.8,13-8.8
			c2.3,0,4.4,0.6,6.6,1.7s3.5,2.8,4.1,5c0.6,2.2,0.9,5.6,0.9,10.4v17.6h6v2.4H177v-2.4h6v-18.4c0-5-0.1-8.6-0.4-10.7
			c-0.3-2.1-1.7-3.2-4.2-3.2c-2.7,0-4.9,1.1-6.8,3.4s-3,4.6-3.6,7c-0.5,2.4-0.8,6.3-0.8,11.8v10.1h6v2.4h-21.6v-2.4L158.1,251.2
			L158.1,251.2z"/>
		<path class="st1" d="M218.5,216.4v34.8h6.1v2.4H203v-2.4h6.5v-31.7H203v-2.4h6.6C212.8,217.1,215.7,216.9,218.5,216.4z
			 M209.2,198.6c0-1.4,0.5-2.5,1.5-3.5c1-1,2.2-1.5,3.6-1.5s2.5,0.5,3.5,1.5s1.5,2.2,1.5,3.5c0,1.4-0.5,2.7-1.5,3.6
			c-1,1-2.2,1.4-3.6,1.4c-1.4,0-2.6-0.5-3.6-1.5C209.7,201.2,209.2,200,209.2,198.6z"/>
		<path class="st1" d="M236.2,251.2v-57.4H229v-2.4h6.9c4.2,0,7.3-0.2,9.3-0.7v34.6h0.2c3.1-5.8,7.4-8.8,13-8.8
			c2.3,0,4.5,0.6,6.6,1.7c2.1,1.2,3.5,2.8,4.1,5c0.6,2.2,0.9,5.6,0.9,10.4v17.6h6v2.4h-20.9v-2.4h6v-18.4c0-5-0.1-8.6-0.4-10.7
			c-0.3-2.1-1.7-3.2-4.2-3.2c-2.7,0-4.9,1.1-6.8,3.4s-3,4.6-3.6,7c-0.5,2.4-0.8,6.3-0.8,11.8v10.1h6v2.4h-21.6v-2.4L236.2,251.2
			L236.2,251.2z"/>
	</g>
</g>
<polygon class="st0" points="-46.6,44.1 -18.6,12 -34.1,15.2 -29,20.2 -50,44.1 "/>
<path class="st0" d="M-82.7,185.5l23.5-13.7l-1.2,9.4c34.8-5.8,67.7-23.9,83.7-40.6c6.1-6.3,9.4-12.3,9.7-17
	c-18,6.8-39.5,8.4-51.1,2.6c-5.8-2.9-8.7-7.5-8.2-13.2c0.7-8.4,10.3-14,24.4-14c0,0,0,0,0,0c8.7,0,17.5,2.2,24.3,5.8
	c7.2,3.9,11.6,9.2,12.8,15.3c5.2-2.2,10-4.8,14-7.7C57,106.7,65.5,97,61.7,83.6l2.4-0.6c3.3,11.6-1.3,22.4-13.3,31.3
	c-4.4,3.3-9.6,6.1-15.3,8.4c0.2,5.5-3.3,12.2-10.3,19.5C6.2,162.1-36.5,184-78,185.4L-82.7,185.5z M-62.3,176.3l-11,6.4
	c3.5-0.3,6.9-0.6,10.3-1.1L-62.3,176.3z M-1.9,102.1c-9.7,0-21.2,2.8-21.9,11.5c-0.4,4.8,1.9,8.3,6.9,10.8
	c11.1,5.5,32.3,3.8,49.8-2.9C30.8,109.2,13.9,102.1-1.9,102.1C-1.9,102.1-1.9,102.1-1.9,102.1z"/>
</svg>
